<?xml version="1.0" standalone="no"?>
<!DOCTYPE svg PUBLIC "-//W3C//DTD SVG 20010904//EN"
 "http://www.w3.org/TR/2001/REC-SVG-20010904/DTD/svg10.dtd">
<svg version="1.0" xmlns="http://www.w3.org/2000/svg"
 width="170.000000pt" height="170.000000pt" viewBox="0 0 170.000000 170.000000"
 preserveAspectRatio="xMidYMid meet">
<metadata>
Created by potrace 1.11, written by Peter Selinger 2001-2013
</metadata>
<g transform="translate(0.000000,170.000000) scale(0.100000,-0.100000)"
fill="#000000" stroke="none">
<path d="M548 1448 c-284 -32 -506 -270 -524 -563 -15 -232 97 -441 299 -561
139 -82 347 -103 494 -50 37 13 47 13 76 1 94 -39 267 -39 382 -1 313 105 483
428 392 744 -91 315 -417 498 -738 414 -75 -20 -76 -20 -145 -1 -81 22 -143
27 -236 17z m1 -325 c-49 -100 -67 -180 -64 -290 4 -122 19 -177 75 -281 l29
-54 -36 7 c-64 12 -126 48 -180 103 -68 70 -96 140 -96 244 -1 66 4 85 31 141
56 114 152 186 273 206 4 1 -11 -34 -32 -76z m684 43 c217 -98 272 -381 108
-558 -44 -48 -123 -92 -186 -103 -39 -8 -40 -7 -23 11 9 11 29 46 43 78 76
171 74 345 -6 515 -21 46 -39 85 -39 87 0 7 56 -9 103 -30z m-352 -78 c114
-120 125 -303 28 -444 -40 -59 -55 -64 -85 -28 -85 102 -110 236 -64 356 18
48 78 137 92 138 4 0 17 -10 29 -22z"/>
</g>
</svg>
